# xmcd
#
# Track frame offsets: 
#        150
#        13254
#        47235
#        72007
#        96799
#        115705
#        136799
#        156053
#        171762
#        193671
#        215517
#        235050
#
# Disc length: 3340 seconds
#
# Revision: 0
# Processed by: cddbd v1.5.2PL0 Copyright (c) Steve Scherf et al.
# Submitted via: ExactAudioCopy v1.0b3
#
DISCID=9d0d0a0c
DTITLE=Grand Funk Railroad  - The Best Hits Collection  [CD 3)
DYEAR=2013
DGENRE=Hard Rock
TTITLE0=Bad Time
TTITLE1=Good and Evil
TTITLE2=Dues 
TTITLE3=Talk To The People
TTITLE4=Love Is Dyin'
TTITLE5=Out To Get You
TTITLE6=Crossfire
TTITLE7=Can't Be With You Tonight
TTITLE8=Wait For Me
TTITLE9=It's A Man's World
TTITLE10=Life In Outer Space
TTITLE11=We're An American Band
EXTD=
EXTT0=
EXTT1=
EXTT2=
EXTT3=
EXTT4=
EXTT5=
EXTT6=
EXTT7=
EXTT8=
EXTT9=
EXTT10=
EXTT11=
PLAYORDER=
